<svg id="Layer_1" data-name="Layer 1" xmlns="http://www.w3.org/2000/svg" viewBox="0 0 300 200"><defs><style>.cls-1{fill:#f08080;}.cls-2{fill:#fff;}</style></defs><title>news-logo</title><rect class="cls-1" width="300" height="200"/><path class="cls-2" d="M91.62,79.23a3.21,3.21,0,0,1,1.08.14c.33.11.67.2,1,.28q.79-.62,1.62-1.31a6.13,6.13,0,0,0,1.36-1.57,4.41,4.41,0,0,0,.21-4.31,2.06,2.06,0,0,1-.74-1.25,2.28,2.28,0,0,0-.48-1.16A3.8,3.8,0,0,0,96,69a10,10,0,0,0,.12-1.22c0-.42,0-.83.06-1.23a3.49,3.49,0,0,1,.27-1.15,26.21,26.21,0,0,1-.62-4.24q-.12-2-.37-4.2-.62-1.68-1.24-3.29T93,50.54a5.6,5.6,0,0,1-1.8-1.08q-.8-.7-1.57-1.54t-1.53-1.67a11.42,11.42,0,0,0-1.61-1.49,3.23,3.23,0,0,0-1.31,1.47,5,5,0,0,0-.43,2.06A8.07,8.07,0,0,0,85,50.54a7.38,7.38,0,0,0,.92,2,.85.85,0,0,0-.39.6,1.63,1.63,0,0,1-.25.67,12.84,12.84,0,0,1,1.31,4.27q.26,2.21.69,4.36a14.83,14.83,0,0,1-2.08,1.78q-1.17.83-2.44,1.61t-2.56,1.5q-1.29.72-2.46,1.46c0-.32-.07-.47-.24-.45a.39.39,0,0,1-.4-.22q-.09-1-.27-2.32T76.43,63q-.22-1.46-.5-2.84t-.56-2.4a13.3,13.3,0,0,0-1.74-1.42l-1.74-1.16A15.24,15.24,0,0,1,70.23,54a8.47,8.47,0,0,1-1.34-1.52l.29-.84a3.61,3.61,0,0,0,.39-.6l.09-.62a3.91,3.91,0,0,0-1.49-2.62,10.81,10.81,0,0,0-2.09-1.07,7.54,7.54,0,0,1-1-.39,3.43,3.43,0,0,1-.76-.51l-.79-.27q-.78.14-1.59.35t-1.71.51a37.24,37.24,0,0,0-4.15,1.68l-4.11,2-2.84,1.39q-1.37.66-2.71,1.23a4.26,4.26,0,0,0-1-.41,3,3,0,0,0-1.79.27l-.48.51-.06.43q0,.19-.1.86-2.75,1.1-5.09,2.22-2.15,1-4.22,1.82T29.68,59.9l-.87.29a7.51,7.51,0,0,1-.89.24l-.79.26.1,1a2.79,2.79,0,0,0-.18.5,2.37,2.37,0,0,0,0,.86,6.71,6.71,0,0,0,.79,1.68A12.88,12.88,0,0,0,28.76,66l.55.67a3.45,3.45,0,0,1,.44.71l.2.58.63,0c.19,0,.45.12.8.44l.51.3a3.56,3.56,0,0,0,1.24,0,6.64,6.64,0,0,0,1-.24l.64-.21.64-.21.48-.16,1-.32a2.74,2.74,0,0,1,1-.49l.64-.21.63-.21c.25-.08.49-.17.73-.27a2.26,2.26,0,0,0,.72-.5,3.42,3.42,0,0,0,.71-.18,6.16,6.16,0,0,0,1.27-.6l.58-.28c.19-.08.41-.16.65-.25a3.37,3.37,0,0,1,0,.82c0,.32-.07.65-.11,1q-.09.8-.13,1.54a3.82,3.82,0,0,0,.18,1.44,3.81,3.81,0,0,0-.35.53l-.39.78q.09,1.5.05,3t-.14,2.93q-.16,2.7-.12,5.48a20.07,20.07,0,0,0,1.38,6.46,2.8,2.8,0,0,1,.68.72l.65,1a12.58,12.58,0,0,0,.87,1.3,5.09,5.09,0,0,0,1.09,1.05c0,.14.11.4.19.76l.69.12a3.36,3.36,0,0,0,1,.09.49.49,0,0,0,.31,0,.51.51,0,0,1,.31,0,1.48,1.48,0,0,0,.75.31l.91.08a3.22,3.22,0,0,0,.58.34l.76-.19a4,4,0,0,0,2.77-2.28,3.69,3.69,0,0,0-.41-3.16l-.74-.46a1.69,1.69,0,0,1-.94-.16.71.71,0,0,0-.32-.07.67.67,0,0,1-.32-.07,2,2,0,0,0-.44-.44L52,87.13a1,1,0,0,1-.24-.54,7,7,0,0,1-.06-.72l-.11-.67a4.05,4.05,0,0,0-.16-.65,2.53,2.53,0,0,0,0-1,.75.75,0,0,1-.1-.47c0-.22,0-.42,0-.63a8.74,8.74,0,0,0,0-1.47,2,2,0,0,0,.13-.57,2,2,0,0,1,.26-.73l-.05-.87q0-.83,0-2a5.86,5.86,0,0,1,.49-2.34,10.17,10.17,0,0,1,0-2.22,16.33,16.33,0,0,1,.45-2.18q-.07-1.45,0-2.67T52.85,65c.08-.81.15-1.62.2-2.42s.09-1.72.14-2.75l2-.94,2.34-1.1q1.66-.85,3.44-1.68a32.17,32.17,0,0,1,3.37-1.36l.74-.25c.21-.07.52-.15.92-.25l.52-.38a3,3,0,0,0,.41-.34,6.46,6.46,0,0,1,.56-.45,3,3,0,0,1,.76-.34A3.84,3.84,0,0,0,67,55.08a13,13,0,0,0,.11,3.85q.34,2.09.94,4.34a35,35,0,0,1,.86,4.1q-.57.07-.53.35a3.71,3.71,0,0,1,.55,1,5.64,5.64,0,0,1,.33,1.42,8.5,8.5,0,0,1,0,1.55A3.51,3.51,0,0,1,69,73a18,18,0,0,1,.5,2.57,6.66,6.66,0,0,1-.27,2.89.82.82,0,0,1,.35.53,3,3,0,0,1,0,.58c0,.2,0,.42,0,.65a1.58,1.58,0,0,0,.27.79c-.14-.07-.23-.06-.28,0a.69.69,0,0,0-.05.37c0,.15,0,.33,0,.52a.93.93,0,0,1-.06.43,6.08,6.08,0,0,1,1.08,1.2,3.75,3.75,0,0,0,1.15,1.06c-.29-.06-.41.06-.35.35s.17.39.34.3c0,.07.12.13.29.17l.61.15a4.37,4.37,0,0,1,.7.24.76.76,0,0,1,.45.47A3.69,3.69,0,0,0,77,85.56a8.12,8.12,0,0,0,1-1,5.82,5.82,0,0,1,1.14-1,.47.47,0,0,0-.14-.42,1.37,1.37,0,0,1-.26-.26q.37-.12.56-.78a9,9,0,0,0,.29-1.42,12.52,12.52,0,0,0,.11-1.45,3.61,3.61,0,0,0,0-.84q.55-.65,1.44-1.6T83,74.86A22.71,22.71,0,0,1,85.25,73a12.28,12.28,0,0,1,2.37-1.38s.05.25.12.64.13.81.18,1.26.11.87.18,1.24.1.57.11.61a3.94,3.94,0,0,0,1.33,2.06Q90.51,78.19,91.62,79.23Z"/><path class="cls-2" d="M99.25,51.95a8.79,8.79,0,0,0,1,1.48,4.62,4.62,0,0,0,1.59,1.15q0,1.13-.16,2.08t-.26,1.88c-.09.62-.16,1.25-.22,1.9s-.09,1.32-.09,2c-.26,0-.38.16-.36.33a.38.38,0,0,1-.22.4,1.67,1.67,0,0,1,.11,1.49,3.51,3.51,0,0,0-.18,1.65A5.81,5.81,0,0,0,101,68c.25.58.54,1.17.85,1.75l.91,1.67a15.11,15.11,0,0,1,.72,1.47,1.25,1.25,0,0,1,1,.53,1.81,1.81,0,0,0,.85.69,5.73,5.73,0,0,0,3.06.54,16.51,16.51,0,0,0,3.49-.66,23.68,23.68,0,0,0,3.39-1.31q1.63-.78,2.76-1.45a2,2,0,0,1,.79-.11,1.4,1.4,0,0,0,.8-.24q1.84-1,3.36-1.83a17.54,17.54,0,0,0,2.69-1.72,7.49,7.49,0,0,0,1.89-2.19,8.4,8.4,0,0,0,.94-3.28.44.44,0,0,1-.49,0,1.17,1.17,0,0,1-.34-.39c-.09-.16-.2-.34-.32-.51a1.18,1.18,0,0,0-.46-.41,1.06,1.06,0,0,1-.87.05,5.17,5.17,0,0,1-.81-.41l-.86-.54a1.8,1.8,0,0,0-.93-.31,13.86,13.86,0,0,1-2.47,1.5,7.44,7.44,0,0,0-2.26,1.61,20.39,20.39,0,0,0-2.78,1l-2.08,1q-1,.49-2.19.94a17.25,17.25,0,0,1-3.06.78,21.83,21.83,0,0,1,.32-3.11,19.18,19.18,0,0,1,.74-2.9,4.35,4.35,0,0,0,1.52-.3,3.31,3.31,0,0,1,1.48-.23,1.88,1.88,0,0,1,1.14-.56,1.87,1.87,0,0,0,1.14-.56.66.66,0,0,0,.4,0l.4-.13a7.73,7.73,0,0,0,2.22-1A11,11,0,0,0,119.59,56,14.73,14.73,0,0,0,121,54.35q.64-.89,1.3-1.76a2.06,2.06,0,0,0-.21-1.08,3.32,3.32,0,0,0-.6-.83,1.55,1.55,0,0,1-1,.12,4.19,4.19,0,0,1-1-.35l-1-.52a5.46,5.46,0,0,0-1-.41c-.08-.13-.1-.23,0-.31s0-.2-.06-.36q-2.16.78-4.34,1.74A24.33,24.33,0,0,1,109,52a1.71,1.71,0,0,1-.41-.78,2.22,2.22,0,0,0-.51-.92q.43-.32.86-.61a1.86,1.86,0,0,0,.64-.72,3.31,3.31,0,0,0,1.56-.7,1.61,1.61,0,0,1,1.24-.42,10.9,10.9,0,0,1,3.06-2.55l3.27-1.76a13.44,13.44,0,0,0,2.84-2,6.39,6.39,0,0,0,1.75-3.32,2.33,2.33,0,0,1-.29-.52,2,2,0,0,1-.09-.35L122.9,37a2.41,2.41,0,0,0-.21-.55,9.24,9.24,0,0,1-2.17-.42A5.27,5.27,0,0,1,118.67,35q.21.46-.14.37c-.24-.06-.37.09-.41.46a1.41,1.41,0,0,1-1.06-.18q-2.08,1.17-3.76,2t-3.21,1.57q-1.54.78-3.08,1.7t-3.44,2.32q-1.08.66-2.07,1.22a15.14,15.14,0,0,0-1.78,1.18A8,8,0,0,0,98.32,47a4.79,4.79,0,0,0-.87,1.73,11.47,11.47,0,0,1,1,1.65Q98.82,51.18,99.25,51.95Z"/><path class="cls-2" d="M84.35,135.94q.12-3,.11-5.84a31,31,0,0,1-1.39-5.32q-.4-2.51-.65-4.87T82,115.08a41.51,41.51,0,0,0-.77-5.22,4.81,4.81,0,0,0,1-2,8.72,8.72,0,0,0,.23-2.22q0-1.16-.09-2.31a7.56,7.56,0,0,1,.18-2.2A10.25,10.25,0,0,0,80,97.9q-1.58-1.31-3.38-2.69a6.29,6.29,0,0,1-3-.23A23.44,23.44,0,0,1,71,93.89a17.1,17.1,0,0,0-2.62-1,6.21,6.21,0,0,0-3-.08,11.79,11.79,0,0,0-.23,3.15q.09,1.68.16,3.31a25,25,0,0,1-.05,3.24,7.49,7.49,0,0,1-.8,2.88q.82,5.4,1.63,10.61a64.3,64.3,0,0,1,.81,10A32.82,32.82,0,0,1,65.67,135a19.22,19.22,0,0,1-4.35,7.71,29.74,29.74,0,0,1-2.39-5.1q-.9-2.55-1.58-5L56,127.79a32.09,32.09,0,0,0-1.65-4.61c.25,0,.41-.08.47-.2a1.24,1.24,0,0,0,.12-.38,1.27,1.27,0,0,1,.12-.38.72.72,0,0,1,.45-.29,3.22,3.22,0,0,1-.71-1.78,6.19,6.19,0,0,1,.19-1.42,4.82,4.82,0,0,0,.13-1.45,3.75,3.75,0,0,0-.88-1.87c.33,0,.53-.05.61-.24s.26-.29.58-.33a2,2,0,0,1-.75-.84,1.65,1.65,0,0,1-.09-.6.82.82,0,0,0-.1-.46,2.43,2.43,0,0,0-.72-.6c0-.27.17-.38.39-.32s.33-.1.33-.49a12.74,12.74,0,0,0-3.31-4.18,17.27,17.27,0,0,0-4.49-2.64,25.16,25.16,0,0,0-5.19-1.44,43.29,43.29,0,0,0-5.5-.56q-.85,6.91-1.85,14.1t-2,14.3q-1,7.11-2.07,14t-1.88,13.23a4,4,0,0,1,1.42,1.55,8.32,8.32,0,0,0,1.3,1.79,4.05,4.05,0,0,1-.59.14c-.22,0-.29.17-.21.41a31.25,31.25,0,0,1,2.67,3.06,35.65,35.65,0,0,0,3,3.44,21,21,0,0,0,3.53,2.84,7.37,7.37,0,0,0,4.13,1.19,4.14,4.14,0,0,0,1.16-1,2.77,2.77,0,0,1,1.72-.74q-.4-.65-.65-.67c-.17,0-.18-.2,0-.57a3,3,0,0,0,2.14-1.41,4.45,4.45,0,0,0,.36-2.11c0-.77-.13-1.54-.24-2.32a3,3,0,0,1,.49-2.15,2.68,2.68,0,0,1-.78-1.71,5.32,5.32,0,0,1,.2-1.67c.16-.54.33-1.08.51-1.63a4.07,4.07,0,0,0,.2-1.68,1.2,1.2,0,0,0,.81-1.13q.1-.91.15-2a18.2,18.2,0,0,1,.21-2.11,2.24,2.24,0,0,1,1-1.57,34,34,0,0,0,8.61,8.12,45.85,45.85,0,0,0,10.13,4.91,10.17,10.17,0,0,0,5-.74,8,8,0,0,0,2.79-2.29,20.47,20.47,0,0,0,1.86-2.93,9.89,9.89,0,0,1,2.08-2.7q-.78-.93-.45-1.27c.22-.23.22-.6,0-1.12.49-.09.79-.07.9.06s.27,0,.49-.3q.45-2.29.81-4.55a10.07,10.07,0,0,1,1.63-4.12A35.23,35.23,0,0,1,84.35,135.94Z"/><path class="cls-2" d="M139,132.56a2,2,0,0,1-.55-.66c-.15-.28-.32-.56-.51-.86a2,2,0,0,0-.75-.69,1.77,1.77,0,0,1-1.44.06,8.55,8.55,0,0,1-1.34-.7L133,128.8a3,3,0,0,0-1.54-.54,23.17,23.17,0,0,1-4.16,2.43,12.36,12.36,0,0,0-3.81,2.62,34.36,34.36,0,0,0-4.66,1.61l-3.5,1.59q-1.71.78-3.67,1.5a28.46,28.46,0,0,1-5.13,1.22,36.41,36.41,0,0,1,.62-5.17,32,32,0,0,1,1.32-4.81,7.28,7.28,0,0,0,2.54-.46,5.49,5.49,0,0,1,2.48-.34,3.12,3.12,0,0,1,1.91-.89,3.1,3.1,0,0,0,1.91-.9,1.12,1.12,0,0,0,.66.09l.67-.21a12.89,12.89,0,0,0,3.73-1.62,18.37,18.37,0,0,0,2.88-2.32,24.77,24.77,0,0,0,2.4-2.76q1.1-1.47,2.21-2.89a3.4,3.4,0,0,0-.32-1.8,5.57,5.57,0,0,0-1-1.4,2.6,2.6,0,0,1-1.65.18,7,7,0,0,1-1.61-.62c-.54-.28-1.1-.58-1.65-.89a8.88,8.88,0,0,0-1.59-.72c-.13-.22-.16-.39-.07-.52s.06-.33-.09-.6q-3.61,1.24-7.27,2.78a40.43,40.43,0,0,1-6.85,2.26,2.86,2.86,0,0,1-.65-1.31,3.72,3.72,0,0,0-.83-1.54c.48-.35,1-.67,1.44-1a3.11,3.11,0,0,0,1.09-1.17,5.51,5.51,0,0,0,2.62-1.12,2.68,2.68,0,0,1,2.08-.66,18.1,18.1,0,0,1,5.18-4.17l5.49-2.85A22.46,22.46,0,0,0,129,98.55a10.65,10.65,0,0,0,3-5.48,3.93,3.93,0,0,1-.47-.88,3.5,3.5,0,0,1-.14-.59c0-.19-.06-.39-.09-.6a3.8,3.8,0,0,0-.34-.92,15.31,15.31,0,0,1-3.61-.77,8.8,8.8,0,0,1-3.06-1.82c.22.51.14.72-.25.61s-.62.15-.69.75a2.34,2.34,0,0,1-1.76-.32q-3.5,1.89-6.32,3.16t-5.4,2.53q-2.58,1.25-5.18,2.75t-5.79,3.77q-1.81,1.06-3.48,2a25.5,25.5,0,0,0-3,1.92,13.5,13.5,0,0,0-2.36,2.26,8,8,0,0,0-1.49,2.86,19.27,19.27,0,0,1,1.56,2.78q.64,1.41,1.34,2.7a14.56,14.56,0,0,0,1.71,2.49,7.6,7.6,0,0,0,2.62,2q-.09,1.88-.32,3.47c-.16,1.06-.31,2.1-.48,3.13s-.31,2.08-.42,3.16-.18,2.21-.2,3.38c-.43.07-.64.25-.61.54a.65.65,0,0,1-.38.66,2.79,2.79,0,0,1,.15,2.49,5.82,5.82,0,0,0-.36,2.75,9.7,9.7,0,0,0,.73,2.79q.61,1.47,1.36,2.94t1.47,2.81a25.19,25.19,0,0,1,1.17,2.46,2.08,2.08,0,0,1,1.6.91,3,3,0,0,0,1.39,1.17,9.59,9.59,0,0,0,5.09,1,27.66,27.66,0,0,0,5.83-1,39.81,39.81,0,0,0,5.69-2.08q2.73-1.25,4.63-2.34a3.38,3.38,0,0,1,1.31-.17,2.34,2.34,0,0,0,1.35-.38q3.09-1.65,5.66-3a29.14,29.14,0,0,0,4.54-2.79,12.48,12.48,0,0,0,3.21-3.6,14,14,0,0,0,1.65-5.45A.74.74,0,0,1,139,132.56Z"/><path class="cls-2" d="M275.39,96a.45.45,0,0,1-.16-.19.72.72,0,0,1,0-.29c0-.14.06-.44.1-.91a33.91,33.91,0,0,0,.09-3.74l-.6-1.27a13.49,13.49,0,0,0-.69-1.25l-.58-.6a4.42,4.42,0,0,0-2.47-.25,20.31,20.31,0,0,1-3,.22l-2.21.26a5.72,5.72,0,0,1-1.8,0l-1.26-.29-.44,1.41q-.53,1.73-.78,2.49a8.87,8.87,0,0,1-.52,1.29,6.35,6.35,0,0,1-.69,1q-.42.52-1.23,1.66l1.6,1.35L259.94,98l1.63.85a4,4,0,0,1,.92,1.37,8.87,8.87,0,0,0,2.08,2.57,9,9,0,0,1,1.73.53q.79.34,2.16,1l1-.31a11.25,11.25,0,0,0,2.46-1.17l1.19-.57-.07-1.15a1.56,1.56,0,0,1,.39-.46,3.77,3.77,0,0,0,.48-.49,9.82,9.82,0,0,0,1-1,3.73,3.73,0,0,0,.71-1.3l.11-1.21A2,2,0,0,0,275.39,96Z"/><path class="cls-2" d="M260.77,78.36a24.05,24.05,0,0,0,3.72,1,7.36,7.36,0,0,0,3.56-.15,5.05,5.05,0,0,0,2.67-2.06,8.79,8.79,0,0,0,1.15-4.71,62,62,0,0,0-.24-8.51q-.39-3.39-.89-6.4t-.94-6.39a59.81,59.81,0,0,1-.31-8.58,1.33,1.33,0,0,1-1.18-.95,8.78,8.78,0,0,1-.57-2.11q-.18-1.21-.33-2.43a11.36,11.36,0,0,0-.39-2,4.61,4.61,0,0,1-2-.74A6.61,6.61,0,0,1,263.71,33l-1.2-1.48A9.23,9.23,0,0,0,260.86,30a5.48,5.48,0,0,0-2.12,1.16,7.54,7.54,0,0,0-1.34,1.64,17.92,17.92,0,0,0-1,1.93,11.84,11.84,0,0,1-1.06,1.9,6.7,6.7,0,0,1,.53,3.39,18.72,18.72,0,0,1-.4,2.61,2.59,2.59,0,0,0,.25,1.73,3.65,3.65,0,0,1,.4,1.88.85.85,0,0,1-.29.78,1.2,1.2,0,0,0-.41.72,2.4,2.4,0,0,0,.6,1.42,3.19,3.19,0,0,1,.68,1.69c.18,1.38.34,2.43.51,3.16s.23,1.13.3,1.58a2.39,2.39,0,0,0-.3-.35,7.41,7.41,0,0,0-2-1.28,4.06,4.06,0,0,0-1-1.39q-.68-.61-1.51-1.23t-1.61-1.25a6.59,6.59,0,0,1-1.33-1.44,27.94,27.94,0,0,0-9.67,1.83,51.77,51.77,0,0,0-8.22,4.1q-3.88,2.39-7.49,5t-6.68,5.28q-1.46.95-3,2.13a22,22,0,0,0-2.93,2.63A15.51,15.51,0,0,0,210,72a18.39,18.39,0,0,0-1.34-2.16,14.22,14.22,0,0,0-2.82-2.92,16.86,16.86,0,0,0-3.41-2,29.23,29.23,0,0,0-4.21-1.45,36.54,36.54,0,0,0-1.53,8q-.51,5-.89,10.33-.24,3.59-.5,7.09t-.72,6.52a38.68,38.68,0,0,1-1.21,5.46,14.4,14.4,0,0,1-1.89,4.06l-2.68,3.87a6.87,6.87,0,0,1-1.21-1.37,10,10,0,0,1-.89-1.58,6.22,6.22,0,0,1-.65-1.75c-.24-.77-.42-1.38-.53-1.83s-.22-1-.34-1.7-.23-1.62-.35-2.82-.29-3-.53-5.4q-.07-1.15-.18-2.43t-.25-2.51q-.14-1.22-.27-2.26t-.24-1.68q-.67-.57-1.38-1.13l-1.5-1.19q-.61-.39-1.31-.9t-1.48-1.14a9.87,9.87,0,0,1-2.74-.5,9.51,9.51,0,0,1-2.35-1.11,24,24,0,0,0-1.65,3.74q-.83,2.31-1.59,5t-1.45,5.63q-.7,2.9-1.36,5.45-.73,3-1.22,5.12t-1,4q-.54,1.83-1.25,3.61a43.46,43.46,0,0,1-1.86,4,34.11,34.11,0,0,1-1.91,3.24q-.84,1.34-1.81,2.62a7.36,7.36,0,0,1-1.95,1.88,88.1,88.1,0,0,1-1.32-9.44,24.19,24.19,0,0,1-.17-3.65q-.06-2,0-4.89t.16-5.85c.05-2,.07-4,.07-6a51.79,51.79,0,0,0-.27-5.33,27.5,27.5,0,0,1-3.58-1.6A26.32,26.32,0,0,1,147,82.78c-.33,0-.7-.07-1.12-.14a2.85,2.85,0,0,1-1.25-.58,5.58,5.58,0,0,0-2.44,2.77,20.22,20.22,0,0,0-1.44,4.55,43.25,43.25,0,0,0-.72,5.45q-.21,2.9-.28,5.46,0,2.94.24,6.8t.65,7.65q.36,3.79.77,6.93c.27,2.1.45,3.58.53,4.47q1.18,1.58,2.25,2.8t2.61,2.69q.58.6,1.11,1.21c.36.41.76.83,1.23,1.27a16.13,16.13,0,0,0,3.36,1.38q1.38.35,3.34.7l2.26.36a21.27,21.27,0,0,0,5.91-3.08,28.94,28.94,0,0,0,4.66-4.4,39.33,39.33,0,0,0,3.8-5.29q1.69-2.82,3.33-5.68l.61-1.17,1.15-1.92.76-1.31,1.16,1.2,2,1.92c.27.24.55.51.84.81l.87.9q2.84,2.82,5.52,5a12.06,12.06,0,0,0,6.24,2.62,3.83,3.83,0,0,1,2.14-1.55,6.91,6.91,0,0,1,1.77-.27,28.4,28.4,0,0,0,4.85-7.53,50.88,50.88,0,0,0,2.91-8.72,81.8,81.8,0,0,0,1.66-9.45q.57-4.86,1-9.68.29-3.61.71-7.26a1.69,1.69,0,0,1,.1.22q.15.78.31,1.9A11.23,11.23,0,0,0,211.81,85q.74.5,1.5,1c.44-.27.78-.31,1-.13a3.65,3.65,0,0,1,.69.66,22.27,22.27,0,0,0,5.87-.09q2.94-.44,6-1.21a22.39,22.39,0,0,1,2.34-.15,2.39,2.39,0,0,0,1.74-.84,22.55,22.55,0,0,0,4.1.32,19.73,19.73,0,0,1,4.33.44l1.06,0q.17.53.61.54c.29,0,.48.23.55.66a3.27,3.27,0,0,1-.2,1.53,8.2,8.2,0,0,1-.67,1.28,10.77,10.77,0,0,0-.71,1.3,3.81,3.81,0,0,0-.34,1.57q-1.82,1.65-3.61,3.58a53.12,53.12,0,0,1-3.85,3.75,26.92,26.92,0,0,1-4.58,3.25,18.31,18.31,0,0,1-5.66,2,2.33,2.33,0,0,0-.84,1.83,5.85,5.85,0,0,0,.45,1.91l.78,1.85a3.16,3.16,0,0,1,.25,1.73.34.34,0,0,0,.21.37,1.76,1.76,0,0,0,.47.09.44.44,0,0,1,.34.14,2.85,2.85,0,0,1-.17,1.17c.23-.07.39,0,.45.35a.37.37,0,0,0,.54.32,4.24,4.24,0,0,0,1.22,1.23q.67.42,1.49.85a7,7,0,0,1,1.88-.69q1-.23,2-.49a7.58,7.58,0,0,0,1.78-.71,3.59,3.59,0,0,0,1.3-1.29c0,.39.1.52.32.39a1.52,1.52,0,0,1,.71-.22,72.12,72.12,0,0,0,5.81-4.47,39.13,39.13,0,0,0,5.27-5.42,30.75,30.75,0,0,0,3.89-6.25,20.4,20.4,0,0,0,1.84-7,8.67,8.67,0,0,0-.48-3.7q-.64-1.7-1.51-3.87a10.43,10.43,0,0,0-2.51-2.09,5.73,5.73,0,0,1-2.07-1.93.93.93,0,0,0-.91-.1c-.22.13-.49,0-.82-.42a6.59,6.59,0,0,0-.88-1.72,7.1,7.1,0,0,0-1.53-1.62,5.87,5.87,0,0,0-2.07-1,4.44,4.44,0,0,0-2.5.11,2.19,2.19,0,0,0-1.38-1,8,8,0,0,0-1.85-.15l-1.94,0a3.06,3.06,0,0,1-1.65-.45c0-.33-.07-.52-.27-.55s-.32-.21-.36-.52q1.45-.65,2.67-1.28a4.91,4.91,0,0,0,1.88-1.62,5.24,5.24,0,0,0,2.21-.89l2.17-1.46a8.54,8.54,0,0,1,2.2-1.08,2.72,2.72,0,0,1,2.16.2q2.61-1,5.9-2.35a22,22,0,0,1,6.82-1.56,12.45,12.45,0,0,0,1.45-1.54c.22,1.13.47,2.5.73,4.12s.57,3.48.9,5.33.67,3.61,1,5.29A17.92,17.92,0,0,0,260.77,78.36Z"/></svg>